<mxfile host="drawio-plugin" modified="2023-11-12T04:34:15.157Z" agent="5.0 (Windows NT 10.0; Win64; x64) AppleWebKit/537.36 (KHTML, like Gecko) Chrome/111.0.0.0 Safari/537.36" version="20.5.3" etag="5AltvOZCe-5UmAK0Rm1z" type="embed"><diagram id="oDbYFtBuFTj72k47zKcS" name="Page-1"><mxGraphModel dx="498" dy="354" grid="1" gridSize="10" guides="1" tooltips="1" connect="1" arrows="1" fold="1" page="1" pageScale="1" pageWidth="850" pageHeight="1100" math="0" shadow="0"><root><mxCell id="0"/><mxCell id="1" parent="0"/><mxCell id="13" style="edgeStyle=orthogonalEdgeStyle;rounded=0;orthogonalLoop=1;jettySize=auto;html=1;" edge="1" parent="1" source="2" target="12"><mxGeometry relative="1" as="geometry"/></mxCell><mxCell id="2" value="前端（静态服务器）" style="rounded=0;whiteSpace=wrap;html=1;" vertex="1" parent="1"><mxGeometry x="110" y="200" width="130" height="60" as="geometry"/></mxCell><mxCell id="8" style="edgeStyle=orthogonalEdgeStyle;rounded=0;orthogonalLoop=1;jettySize=auto;html=1;" edge="1" parent="1" source="3" target="2"><mxGeometry relative="1" as="geometry"/></mxCell><mxCell id="11" style="edgeStyle=orthogonalEdgeStyle;rounded=0;orthogonalLoop=1;jettySize=auto;html=1;entryX=0.75;entryY=0;entryDx=0;entryDy=0;" edge="1" parent="1" source="3" target="9"><mxGeometry relative="1" as="geometry"/></mxCell><mxCell id="3" value="浏览器" style="rounded=0;whiteSpace=wrap;html=1;" vertex="1" parent="1"><mxGeometry x="140" y="70" width="290" height="60" as="geometry"/></mxCell><mxCell id="7" style="edgeStyle=orthogonalEdgeStyle;rounded=0;orthogonalLoop=1;jettySize=auto;html=1;entryX=0;entryY=0.5;entryDx=0;entryDy=0;" edge="1" parent="1" source="6" target="3"><mxGeometry relative="1" as="geometry"/></mxCell><mxCell id="6" value="Actor" style="shape=umlActor;verticalLabelPosition=bottom;verticalAlign=top;html=1;outlineConnect=0;" vertex="1" parent="1"><mxGeometry x="20" y="10" width="30" height="60" as="geometry"/></mxCell><mxCell id="9" value="后端（restful接口）" style="rounded=0;whiteSpace=wrap;html=1;" vertex="1" parent="1"><mxGeometry x="320" y="200" width="130" height="60" as="geometry"/></mxCell><mxCell id="12" value="&lt;b&gt;前端&lt;br&gt;&lt;br&gt;框架：vue3全家桶&lt;br&gt;ui组件库：arco design&lt;br&gt;&lt;/b&gt;" style="rounded=0;whiteSpace=wrap;html=1;align=left;strokeColor=none;" vertex="1" parent="1"><mxGeometry x="100" y="310" width="130" height="90" as="geometry"/></mxCell><mxCell id="14" value="&lt;div style=&quot;&quot;&gt;&lt;/div&gt;&lt;b&gt;&lt;br&gt;&lt;/b&gt;" style="rounded=0;whiteSpace=wrap;html=1;align=left;" vertex="1" parent="1"><mxGeometry x="40" y="420" width="580" height="300" as="geometry"/></mxCell><mxCell id="15" value="开发restful接口(gin)" style="rounded=0;whiteSpace=wrap;html=1;" vertex="1" parent="1"><mxGeometry x="70" y="430" width="420" height="60" as="geometry"/></mxCell><mxCell id="16" value="业务处理（DDD,MVC两种处理用户请求的架构模式）" style="rounded=0;whiteSpace=wrap;html=1;" vertex="1" parent="1"><mxGeometry x="40" y="510" width="390" height="180" as="geometry"/></mxCell><mxCell id="18" value="数据库&lt;br&gt;" style="aspect=fixed;perimeter=ellipsePerimeter;html=1;align=center;shadow=0;dashed=0;spacingTop=3;image;image=img/lib/active_directory/database.svg;" vertex="1" parent="1"><mxGeometry x="205" y="800" width="160" height="118.4" as="geometry"/></mxCell><mxCell id="20" style="edgeStyle=orthogonalEdgeStyle;rounded=0;orthogonalLoop=1;jettySize=auto;html=1;entryX=0.2;entryY=-0.008;entryDx=0;entryDy=0;entryPerimeter=0;" edge="1" parent="1" source="19" target="18"><mxGeometry relative="1" as="geometry"/></mxCell><mxCell id="19" value="gorm" style="rounded=0;whiteSpace=wrap;html=1;" vertex="1" parent="1"><mxGeometry x="60" y="630" width="325" height="40" as="geometry"/></mxCell><mxCell id="21" value="" style="rounded=0;whiteSpace=wrap;html=1;" vertex="1" parent="1"><mxGeometry x="460" y="510" width="140" height="190" as="geometry"/></mxCell><mxCell id="22" value="配置管理（env环境变量，toml格式）" style="rounded=1;whiteSpace=wrap;html=1;" vertex="1" parent="1"><mxGeometry x="470" y="520" width="120" height="40" as="geometry"/></mxCell><mxCell id="23" value="cli（cobra）" style="rounded=1;whiteSpace=wrap;html=1;" vertex="1" parent="1"><mxGeometry x="470" y="570" width="120" height="30" as="geometry"/></mxCell><mxCell id="25" value="" style="rounded=0;whiteSpace=wrap;html=1;" vertex="1" parent="1"><mxGeometry x="80" y="950" width="335" height="230" as="geometry"/></mxCell><mxCell id="26" value="M：模型定义，数据库表结构定义" style="rounded=0;whiteSpace=wrap;html=1;" vertex="1" parent="1"><mxGeometry x="85" y="960" width="120" height="60" as="geometry"/></mxCell><mxCell id="27" value="C：controller，业务逻辑函数" style="rounded=0;whiteSpace=wrap;html=1;" vertex="1" parent="1"><mxGeometry x="162.5" y="1060" width="120" height="60" as="geometry"/></mxCell><mxCell id="28" value="v：vision视图，前后端分离结构的话就是理解为API" style="rounded=0;whiteSpace=wrap;html=1;" vertex="1" parent="1"><mxGeometry x="240" y="960" width="120" height="60" as="geometry"/></mxCell><mxCell id="29" value="" style="rounded=0;whiteSpace=wrap;html=1;" vertex="1" parent="1"><mxGeometry x="450" y="950" width="420" height="230" as="geometry"/></mxCell><mxCell id="30" value="业务分层架构" style="rounded=0;whiteSpace=wrap;html=1;strokeColor=none;" vertex="1" parent="1"><mxGeometry x="70" y="900" width="120" height="60" as="geometry"/></mxCell><mxCell id="31" value="" style="rounded=0;whiteSpace=wrap;html=1;" vertex="1" parent="1"><mxGeometry x="450" y="890" width="120" height="60" as="geometry"/></mxCell></root></mxGraphModel></diagram></mxfile>